<svg width="262" height="64" viewBox="0 0 262 64" fill="none" xmlns="http://www.w3.org/2000/svg">
<g clip-path="url(#clip0)">
<path d="M67.1952 63.9999V43.901C67.1952 42.1949 67.6953 40.8418 68.6954 39.8416C69.7544 38.7827 71.1369 38.2532 72.843 38.2532C74.6079 38.2532 75.9905 38.7827 76.9906 39.8416C78.0496 40.8418 78.5791 42.1949 78.5791 43.901V63.9999H67.1952Z" fill="#1F0F4F"/>
<path d="M72.843 33.7725C71.1369 33.7725 69.7544 33.243 68.6954 32.1841C67.6953 31.1251 67.1952 29.7426 67.1952 28.0365V21.696C67.1952 19.9899 67.6953 18.6368 68.6954 17.6367C69.7544 16.5777 71.1369 16.0482 72.843 16.0482C74.6079 16.0482 75.9905 16.5777 76.9906 17.6367C78.0496 18.6368 78.5791 19.9899 78.5791 21.696V28.0365C78.5791 29.7426 78.0496 31.1251 76.9906 32.1841C75.9905 33.243 74.6079 33.7725 72.843 33.7725Z" fill="#24B3EE"/>
<path d="M72.8441 11.3892C71.138 11.3892 69.7554 10.8598 68.6965 9.80079C67.6963 8.74183 67.1963 7.35929 67.1963 5.65318C67.1963 3.94707 67.6963 2.59395 68.6965 1.59382C69.7554 0.534853 71.138 0.00537109 72.8441 0.00537109C74.609 0.00537109 75.9916 0.534853 76.9917 1.59382C78.0506 2.59395 78.5801 3.94707 78.5801 5.65318C78.5801 7.35929 78.0506 8.74183 76.9917 9.80079C75.9916 10.8598 74.609 11.3892 72.8441 11.3892Z" fill="#F56E41"/>
<path d="M49.2879 54.6433V63.9925H5.17386C3.60053 63.9925 2.32975 63.5387 1.36154 62.631C0.453848 61.6628 0 60.4525 0 59.0002C0 57.5479 0.484104 56.1561 1.45231 54.8248L33.9478 9.34926H0.0907694V0H43.0248C44.5981 0 45.8386 0.484105 46.7463 1.45232C47.7145 2.36001 48.1986 3.50976 48.1986 4.90156C48.1986 6.29336 47.6843 7.68516 46.6555 9.07696L14.16 54.6433H49.2879Z" fill="#1F0F4F"/>
<path d="M156.268 0V58.1832C156.268 59.9111 155.761 61.3113 154.749 62.3838C153.736 63.4563 152.425 63.9925 150.816 63.9925C148.909 63.9925 147.45 63.3073 146.437 61.9369L113.815 19.4838V63.9925H103.09V5.72C103.09 3.99209 103.596 2.62167 104.609 1.60875C105.622 0.53625 106.963 0 108.631 0C110.478 0 111.908 0.685209 112.921 2.05563L145.454 44.33V0H156.268Z" fill="#1F0F4F"/>
<path d="M184.267 63.9925C182.512 63.9925 181.12 63.5084 180.091 62.5402C179.123 61.572 178.639 60.2105 178.639 58.4556V5.53694C178.639 3.78207 179.123 2.42052 180.091 1.45232C181.12 0.484105 182.512 0 184.267 0H202.239C212.708 0 220.817 2.81386 226.565 8.44157C232.375 14.0088 235.279 21.8452 235.279 31.9509C235.279 42.1171 232.375 50.014 226.565 55.6417C220.817 61.2089 212.708 63.9925 202.239 63.9925H184.267ZM201.513 54.4617C216.218 54.4617 223.57 46.9581 223.57 31.9509C223.57 17.0042 216.218 9.53081 201.513 9.53081H190.348V54.4617H201.513Z" fill="#1F0F4F"/>
<path d="M250.43 6.48499e-05V20.099C250.43 21.8051 250.93 23.1582 251.931 24.1584C252.99 25.2173 254.372 25.7468 256.078 25.7468C257.843 25.7468 259.226 25.2173 260.226 24.1584C261.285 23.1582 261.814 21.8051 261.814 20.099V6.48499e-05H250.43Z" fill="#1F0F4F"/>
<path d="M256.078 30.2252C254.372 30.2252 252.99 30.7547 251.931 31.8137C250.93 32.8726 250.43 34.2552 250.43 35.9613V42.3017C250.43 44.0078 250.93 45.3609 251.931 46.3611C252.99 47.42 254.372 47.9495 256.078 47.9495C257.843 47.9495 259.226 47.42 260.226 46.3611C261.285 45.3609 261.814 44.0078 261.814 42.3017V35.9613C261.814 34.2552 261.285 32.8726 260.226 31.8137C259.226 30.7547 257.843 30.2252 256.078 30.2252Z" fill="#24B3EE"/>
<path d="M256.079 52.6138C254.373 52.6138 252.991 53.1433 251.932 54.2023C250.932 55.2612 250.432 56.6438 250.432 58.3499C250.432 60.056 250.932 61.4091 251.932 62.4092C252.991 63.4682 254.373 63.9977 256.079 63.9977C257.844 63.9977 259.227 63.4682 260.227 62.4092C261.286 61.4091 261.815 60.056 261.815 58.3499C261.815 56.6438 261.286 55.2612 260.227 54.2023C259.227 53.1433 257.844 52.6138 256.079 52.6138Z" fill="#F56E41"/>
</g>
<defs>
<clipPath id="clip0">
<rect width="261.815" height="64" fill="white"/>
</clipPath>
</defs>
</svg>
